<svg id="svg" version="1.1" xmlns="http://www.w3.org/2000/svg" xmlns:xlink="http://www.w3.org/1999/xlink" width="400" height="400" viewBox="0, 0, 400,400"><g id="svgg"><path id="path0" d="M199.070 133.816 C 197.807 134.390,197.226 135.749,197.670 137.092 C 198.649 140.059,203.144 139.065,202.777 135.963 C 202.556 134.098,200.751 133.053,199.070 133.816 M232.856 163.511 C 231.250 163.828,229.959 164.196,229.083 164.585 C 228.808 164.708,228.383 164.858,228.137 164.919 C 227.892 164.980,227.653 165.129,227.607 165.249 C 227.560 165.370,227.274 165.522,226.970 165.588 C 226.116 165.772,223.326 167.363,222.083 168.374 C 221.992 168.448,221.467 168.851,220.917 169.269 C 218.853 170.837,216.160 173.495,213.490 176.597 C 210.901 179.605,205.314 188.370,205.724 188.780 C 205.792 188.847,206.761 187.997,208.417 186.417 C 215.537 179.625,222.502 174.621,228.250 172.166 C 233.481 169.933,238.423 170.358,242.675 173.408 C 246.823 176.384,248.075 182.870,245.362 187.333 C 244.714 188.399,243.981 189.461,243.578 189.917 C 242.093 191.598,238.907 195.382,238.857 195.524 C 238.795 195.699,238.934 195.839,242.732 199.417 C 245.025 201.576,246.323 203.218,247.147 205.000 C 251.288 213.958,244.074 223.276,233.083 223.164 C 232.167 223.154,231.355 223.151,231.280 223.157 C 231.107 223.169,231.594 223.666,231.780 223.668 C 231.855 223.668,232.132 223.781,232.396 223.919 C 238.191 226.941,247.919 223.839,252.148 217.620 C 256.323 211.480,255.431 201.459,250.207 195.805 L 249.796 195.359 250.164 194.971 C 258.735 185.944,256.297 170.816,245.412 165.486 C 240.972 163.312,237.017 162.690,232.856 163.511 M161.005 167.198 C 159.177 167.394,156.968 167.895,156.083 168.315 C 153.110 169.726,152.730 169.944,151.554 170.914 C 144.313 176.890,143.482 187.469,149.613 195.616 L 150.529 196.833 149.865 197.587 C 144.619 203.547,143.537 212.819,147.319 219.417 C 149.993 224.083,153.380 226.523,159.954 228.522 C 161.465 228.981,167.237 228.977,168.153 228.515 C 168.298 228.443,168.888 228.286,169.463 228.168 C 170.039 228.049,170.549 227.888,170.598 227.810 C 170.647 227.731,170.801 227.667,170.941 227.667 C 171.508 227.667,176.577 225.165,177.000 224.676 C 177.046 224.623,177.421 224.363,177.833 224.097 C 179.727 222.875,184.217 218.715,186.211 216.333 C 186.633 215.829,187.114 215.254,187.281 215.056 C 188.653 213.419,189.854 211.722,192.050 208.316 C 192.973 206.884,194.686 203.643,194.622 203.449 C 194.570 203.294,193.815 203.942,191.746 205.917 C 189.776 207.797,186.408 210.738,184.583 212.172 C 184.217 212.461,183.662 212.896,183.352 213.140 C 183.041 213.384,182.702 213.658,182.597 213.750 C 181.977 214.295,177.810 217.066,176.417 217.861 C 174.942 218.701,172.812 219.733,172.167 219.920 C 171.938 219.987,171.675 220.100,171.583 220.172 C 170.834 220.761,167.195 221.367,164.917 221.282 C 157.202 220.997,152.022 214.457,153.999 207.499 C 154.366 206.210,155.381 203.996,155.882 203.397 C 155.993 203.264,156.158 203.064,156.250 202.953 C 156.989 202.054,158.933 199.733,159.002 199.667 C 159.050 199.621,159.575 198.993,160.169 198.271 C 160.764 197.549,161.340 196.874,161.450 196.771 C 161.602 196.628,160.823 195.764,158.200 193.166 C 154.244 189.247,154.533 189.586,153.618 187.786 C 152.585 185.754,152.513 185.555,152.226 183.917 C 150.827 175.942,158.142 168.684,167.229 169.029 C 171.018 169.172,167.295 167.530,162.917 167.126 C 162.550 167.093,161.690 167.125,161.005 167.198 M139.399 193.347 C 137.268 193.965,137.036 197.267,139.057 198.226 C 140.842 199.074,142.680 198.022,142.803 196.083 C 142.935 194.007,141.394 192.768,139.399 193.347 M258.381 193.849 C 256.552 195.020,256.791 197.754,258.795 198.591 C 261.616 199.770,263.796 195.803,261.315 194.006 C 260.442 193.373,259.225 193.308,258.381 193.849 M198.828 253.303 C 197.783 253.766,197.069 254.990,197.236 256.033 C 197.759 259.303,202.499 259.048,202.499 255.750 C 202.499 253.913,200.483 252.570,198.828 253.303 M245.072 274.036 C 241.306 284.376,241.176 284.667,240.333 284.667 L 239.833 284.667 239.833 286.667 L 239.833 288.667 241.875 288.666 C 244.863 288.665,244.921 288.612,246.351 284.542 L 247.068 282.500 251.201 282.500 C 255.180 282.500,255.333 282.512,255.333 282.823 C 255.333 283.001,255.403 283.190,255.487 283.242 C 255.572 283.294,255.692 283.580,255.755 283.877 C 255.817 284.174,255.967 284.642,256.087 284.917 C 256.206 285.192,256.396 285.717,256.508 286.083 C 257.197 288.338,257.697 288.665,260.458 288.666 L 262.500 288.667 262.500 286.677 L 262.500 284.687 261.875 284.635 C 261.143 284.574,260.979 284.309,260.067 281.702 C 259.756 280.812,259.432 279.933,259.347 279.750 C 259.263 279.567,259.118 279.192,259.025 278.917 C 258.648 277.798,257.658 275.061,257.517 274.750 C 257.435 274.567,256.521 272.073,255.487 269.208 L 253.607 264.000 251.167 264.000 L 248.728 264.000 245.072 274.036 M268.000 265.985 L 268.000 268.000 269.167 268.000 L 270.333 268.000 270.336 277.625 C 270.337 282.919,270.379 287.401,270.428 287.587 C 270.883 289.278,280.500 289.165,284.267 287.425 C 292.752 283.504,292.860 269.323,284.435 265.347 C 281.972 264.185,281.404 264.111,274.375 264.037 L 268.000 263.970 268.000 265.985 M304.447 264.121 C 304.405 264.192,302.741 268.712,300.751 274.167 C 296.913 284.686,296.921 284.667,296.058 284.667 L 295.500 284.667 295.500 286.667 L 295.500 288.667 297.559 288.667 C 300.543 288.667,300.660 288.563,302.049 284.667 L 302.792 282.583 306.854 282.539 L 310.917 282.495 311.105 282.956 C 311.208 283.209,311.612 284.321,312.002 285.426 C 313.098 288.528,313.279 288.667,316.244 288.667 L 318.333 288.667 318.333 286.667 L 318.333 284.667 317.822 284.667 C 317.241 284.667,316.667 284.407,316.667 284.144 C 316.667 284.047,316.564 283.731,316.438 283.442 C 316.313 283.153,314.670 278.679,312.787 273.500 L 309.365 264.083 306.945 264.037 C 305.614 264.012,304.490 264.049,304.447 264.121 M280.047 268.332 C 283.905 269.304,285.588 271.765,285.578 276.417 C 285.569 280.389,284.519 282.393,281.671 283.869 C 280.472 284.490,276.261 284.948,275.264 284.566 C 275.028 284.475,275.000 283.585,275.000 276.232 L 275.000 268.000 276.875 268.003 C 278.178 268.004,279.146 268.105,280.047 268.332 M308.572 274.833 C 309.004 276.071,309.457 277.402,309.579 277.792 L 309.801 278.500 306.900 278.500 C 305.305 278.500,304.000 278.444,304.001 278.375 C 304.002 278.306,304.344 277.275,304.763 276.083 C 305.906 272.826,306.297 271.545,306.748 269.583 C 306.847 269.152,306.926 269.322,307.325 270.833 C 307.579 271.796,308.140 273.596,308.572 274.833 M251.398 270.171 C 251.498 270.799,252.256 273.166,253.492 276.708 C 253.771 277.510,254.000 278.241,254.000 278.333 C 254.000 278.438,252.925 278.500,251.098 278.500 L 248.196 278.500 249.428 274.875 C 250.106 272.881,250.746 270.820,250.851 270.295 C 251.067 269.216,251.239 269.177,251.398 270.171 " stroke="none" fill="#343434" fill-rule="evenodd"></path><path id="path1" d="M182.500 142.154 C 178.087 142.797,173.317 145.756,170.917 149.338 C 170.642 149.748,170.364 150.123,170.299 150.172 C 170.234 150.221,169.808 151.008,169.351 151.922 C 166.880 156.866,166.461 161.234,167.905 167.000 C 168.230 168.298,168.258 168.341,169.000 168.698 C 169.578 168.976,169.579 168.979,169.125 168.989 C 168.873 168.995,168.667 169.082,168.667 169.183 C 168.667 169.561,170.388 173.169,171.107 174.295 C 171.415 174.778,171.667 175.212,171.667 175.260 C 171.667 175.407,174.275 179.054,174.938 179.833 C 177.590 182.953,181.351 186.838,183.489 188.667 C 184.078 189.171,184.866 189.850,185.239 190.176 C 185.847 190.708,187.167 191.777,189.333 193.494 C 189.746 193.821,190.533 194.425,191.083 194.836 C 191.633 195.247,192.174 195.658,192.286 195.750 C 192.770 196.149,192.962 196.292,193.746 196.838 C 194.202 197.156,194.652 197.473,194.746 197.542 C 195.278 197.935,196.965 199.200,197.242 199.415 C 197.421 199.553,197.619 199.667,197.681 199.667 C 197.743 199.667,198.213 199.985,198.727 200.375 C 199.241 200.765,199.981 201.314,200.372 201.595 C 202.821 203.357,204.351 204.503,206.888 206.476 C 208.462 207.701,209.787 208.755,209.833 208.819 C 209.879 208.883,210.093 209.057,210.309 209.204 C 211.985 210.350,217.151 215.532,219.165 218.089 C 219.668 218.728,220.177 219.352,220.296 219.476 C 220.739 219.940,223.500 224.343,223.500 224.587 C 223.500 224.626,223.679 225.053,223.897 225.537 C 224.116 226.021,224.345 226.604,224.408 226.833 C 224.470 227.063,224.589 227.400,224.672 227.583 C 226.991 232.684,223.126 241.576,218.000 242.933 C 217.862 242.969,217.188 243.148,216.500 243.330 C 214.003 243.991,211.259 243.624,208.167 242.213 C 206.872 241.623,205.896 240.880,201.599 237.217 L 200.583 236.351 198.837 238.217 C 195.846 241.413,195.272 241.955,193.830 242.943 C 189.522 245.897,182.805 246.151,179.434 243.489 C 179.333 243.409,178.832 243.014,178.322 242.611 C 174.092 239.273,171.684 232.714,172.843 227.686 C 173.238 225.976,172.673 226.872,172.165 228.762 C 169.140 240.033,178.693 250.800,190.131 249.009 C 193.423 248.494,197.434 246.630,199.583 244.617 C 199.767 244.445,200.115 244.162,200.357 243.987 L 200.798 243.669 201.774 244.603 C 205.856 248.510,211.222 250.378,216.788 249.830 C 218.522 249.659,220.814 249.119,221.602 248.696 C 221.775 248.603,222.392 248.291,222.973 248.002 C 224.837 247.076,226.955 245.360,228.301 243.683 C 228.640 243.261,228.959 242.879,229.010 242.833 C 229.304 242.571,230.703 240.088,231.076 239.167 C 231.317 238.571,231.579 237.933,231.656 237.750 C 233.030 234.517,233.245 229.323,232.159 225.649 C 231.980 225.043,231.833 224.430,231.833 224.287 C 231.833 224.143,231.603 223.795,231.321 223.513 C 230.959 223.152,230.885 223.000,231.071 223.000 C 231.403 223.000,231.411 223.052,230.906 221.896 C 229.551 218.794,228.133 216.427,225.726 213.250 C 225.240 212.608,224.784 212.006,224.713 211.911 C 223.549 210.361,218.399 205.086,216.093 203.083 C 215.460 202.533,214.861 202.008,214.763 201.917 C 213.667 200.899,205.638 194.793,203.545 193.386 C 202.502 192.686,201.413 191.894,201.062 191.583 C 200.959 191.492,200.709 191.304,200.506 191.167 C 200.192 190.953,199.509 190.457,196.255 188.083 C 195.888 187.815,194.588 186.821,193.583 186.040 C 193.262 185.790,189.892 183.021,189.341 182.555 C 187.567 181.052,183.234 176.795,182.083 175.423 C 181.717 174.986,181.296 174.505,181.149 174.356 C 179.115 172.284,176.102 166.939,175.304 163.985 C 173.796 158.402,176.282 152.291,181.049 149.864 C 184.881 147.913,190.764 148.622,193.940 151.416 C 194.044 151.508,194.269 151.696,194.440 151.833 C 194.611 151.971,195.815 152.964,197.117 154.041 L 199.484 155.998 200.867 154.547 C 203.177 152.122,205.506 149.833,205.662 149.833 C 205.743 149.833,205.922 149.720,206.061 149.582 C 206.199 149.444,206.860 149.037,207.531 148.678 C 217.884 143.129,228.664 152.057,226.786 164.625 C 226.678 165.345,226.699 165.500,226.902 165.500 C 228.874 165.500,229.352 158.216,227.689 153.500 C 223.666 142.089,209.642 139.076,200.083 147.568 C 199.258 148.301,199.433 148.332,198.250 147.242 C 196.702 145.815,195.380 144.920,193.574 144.076 C 192.662 143.650,191.792 143.237,191.639 143.158 C 190.083 142.355,184.971 141.793,182.500 142.154 M155.417 149.886 C 150.293 152.358,151.970 160.047,157.627 160.020 C 164.714 159.986,164.915 149.810,157.833 149.543 C 156.429 149.491,156.156 149.529,155.417 149.886 M240.583 149.721 C 239.389 150.190,238.750 150.662,237.899 151.708 C 237.100 152.690,236.795 154.996,237.275 156.429 C 239.202 162.175,247.583 160.810,247.583 154.750 C 247.583 151.009,243.952 148.401,240.583 149.721 M156.583 231.947 C 156.400 231.989,156.014 232.130,155.725 232.261 C 155.436 232.393,155.152 232.500,155.093 232.500 C 154.948 232.500,154.563 232.813,153.938 233.438 C 149.751 237.625,154.721 244.762,159.969 242.100 C 165.537 239.275,162.637 230.579,156.583 231.947 M241.271 231.945 C 238.051 232.492,236.068 236.514,237.542 239.508 C 240.185 244.879,247.988 242.826,247.631 236.854 C 247.528 235.123,245.910 232.504,244.941 232.499 C 244.836 232.498,244.527 232.381,244.254 232.239 C 243.734 231.968,242.089 231.806,241.271 231.945 M81.833 265.994 L 81.833 268.000 82.917 268.000 L 84.000 268.000 84.000 278.333 L 84.000 288.667 86.333 288.667 L 88.667 288.667 88.667 283.750 L 88.667 278.833 92.667 278.833 L 96.667 278.833 96.667 276.833 L 96.667 274.833 92.667 274.833 L 88.667 274.833 88.667 271.417 L 88.667 268.000 91.070 268.000 C 94.120 268.000,94.000 267.948,94.000 269.273 L 94.000 270.343 96.125 270.297 L 98.250 270.250 98.302 268.583 C 98.378 266.149,98.233 265.247,97.667 264.612 L 97.194 264.083 89.514 264.035 L 81.833 263.987 81.833 265.994 M149.833 268.583 L 149.833 271.000 148.583 271.000 L 147.333 271.000 147.333 272.833 L 147.333 274.667 148.488 274.667 L 149.643 274.667 149.701 279.375 C 149.756 283.826,149.780 284.136,150.142 285.044 C 151.103 287.450,153.619 288.833,157.035 288.833 L 158.500 288.833 158.500 286.853 L 158.500 284.872 157.458 284.802 C 156.108 284.711,155.249 284.285,154.694 283.433 L 154.250 282.750 154.198 278.714 L 154.145 274.677 156.114 274.630 L 158.083 274.583 158.131 272.792 L 158.178 271.000 156.172 271.000 L 154.167 271.000 154.167 268.583 L 154.167 266.167 152.000 266.167 L 149.833 266.167 149.833 268.583 M110.917 270.857 C 105.390 272.376,102.286 278.389,104.509 283.269 C 104.687 283.661,104.833 284.029,104.833 284.086 C 104.833 284.813,108.363 288.161,109.137 288.168 C 109.199 288.168,109.458 288.277,109.713 288.410 C 113.012 290.131,118.750 288.677,121.471 285.431 C 123.130 283.451,123.883 278.751,122.866 276.721 C 122.782 276.553,122.497 275.985,122.232 275.457 C 120.343 271.695,115.310 269.649,110.917 270.857 M200.963 270.830 C 199.615 271.253,198.659 271.858,197.769 272.847 L 197.000 273.703 197.000 272.947 C 197.000 272.317,196.906 272.091,196.439 271.595 L 195.877 271.000 193.189 271.000 L 190.500 271.000 190.500 272.917 L 190.500 274.833 191.383 274.833 C 192.742 274.833,192.667 274.418,192.667 281.950 L 192.667 288.667 194.904 288.667 L 197.141 288.667 197.202 283.625 C 197.259 278.868,197.283 278.539,197.626 277.790 C 198.647 275.563,200.890 274.327,202.996 274.832 C 204.654 275.230,204.833 275.988,204.833 282.601 L 204.833 287.489 205.422 288.078 L 206.011 288.667 208.756 288.667 L 211.500 288.667 211.500 286.750 L 211.500 284.833 210.604 284.833 C 209.327 284.833,209.369 284.998,209.299 279.666 C 209.240 275.182,209.215 274.863,208.853 273.951 C 208.334 272.641,206.991 271.263,205.986 271.008 C 205.581 270.906,205.078 270.750,204.867 270.661 C 204.255 270.404,202.010 270.501,200.963 270.830 M223.730 270.822 C 221.941 271.324,220.192 272.384,219.417 273.436 C 219.233 273.685,219.007 273.970,218.915 274.069 C 216.889 276.238,216.658 281.492,218.450 284.644 C 221.044 289.209,227.839 290.461,232.785 287.286 C 233.361 286.916,233.833 286.518,233.833 286.401 C 233.833 286.224,232.329 283.607,232.089 283.367 C 232.047 283.325,231.654 283.518,231.215 283.795 C 227.213 286.325,222.677 285.059,221.945 281.208 L 221.842 280.667 227.921 280.667 L 234.000 280.667 233.999 278.875 C 233.998 277.085,233.857 276.214,233.406 275.225 C 233.274 274.936,233.167 274.632,233.167 274.550 C 233.167 274.098,231.276 272.091,230.355 271.566 C 228.581 270.555,225.798 270.242,223.730 270.822 M139.833 270.894 C 138.276 271.233,136.777 272.458,135.928 274.086 L 135.669 274.583 135.655 273.750 C 135.615 271.239,135.266 271.000,131.633 271.000 L 129.083 271.000 129.083 272.917 L 129.083 274.833 129.946 274.833 C 131.412 274.833,131.333 274.424,131.333 282.012 L 131.333 288.667 133.572 288.667 L 135.810 288.667 135.864 283.958 L 135.917 279.250 136.432 278.161 C 137.334 276.251,138.769 275.300,140.792 275.269 L 142.000 275.250 142.000 273.059 C 142.000 270.411,142.009 270.421,139.833 270.894 M164.333 272.906 L 164.333 274.833 165.240 274.833 C 166.399 274.833,166.306 274.469,166.346 279.124 C 166.383 283.337,166.564 284.933,167.151 286.210 C 168.895 290.005,175.722 289.973,178.366 286.158 L 178.649 285.750 178.658 286.534 C 178.679 288.394,179.182 288.667,182.597 288.667 L 185.167 288.667 185.167 286.750 L 185.167 284.833 184.283 284.833 C 182.925 284.833,183.000 285.249,183.000 277.717 L 183.000 271.000 180.708 271.000 L 178.417 271.000 178.468 274.625 C 178.578 282.303,177.391 284.856,173.691 284.897 C 171.190 284.925,170.833 283.936,170.833 276.981 C 170.833 270.729,171.067 271.104,167.137 271.031 L 164.333 270.978 164.333 272.906 M227.543 274.356 C 228.464 274.849,229.332 276.111,229.333 276.958 L 229.333 277.500 225.667 277.500 C 223.650 277.500,222.000 277.439,222.000 277.365 C 222.000 276.458,223.623 274.634,224.719 274.308 C 225.336 274.125,227.169 274.156,227.543 274.356 M115.333 274.778 C 117.966 275.622,119.397 279.036,118.322 281.908 C 118.003 282.760,116.774 284.333,116.427 284.333 C 116.344 284.333,116.158 284.433,116.013 284.555 C 114.396 285.915,110.799 285.042,109.426 282.957 C 106.537 278.566,110.413 273.199,115.333 274.778 " stroke="none" fill="#2c74d3" fill-rule="evenodd"></path><path id="path2" d="" stroke="none" fill="#344661" fill-rule="evenodd"></path><path id="path3" d="M232.872 230.833 C 232.872 231.154,232.906 231.285,232.948 231.125 C 232.990 230.965,232.990 230.702,232.948 230.542 C 232.906 230.381,232.872 230.512,232.872 230.833 M129.062 272.917 C 129.063 273.925,129.090 274.316,129.123 273.786 C 129.157 273.255,129.156 272.430,129.123 271.952 C 129.089 271.474,129.062 271.908,129.062 272.917 M178.405 275.167 C 178.405 277.412,178.429 278.331,178.458 277.208 C 178.487 276.085,178.487 274.248,178.458 273.125 C 178.429 272.002,178.405 272.921,178.405 275.167 " stroke="none" fill="#2c64b0" fill-rule="evenodd"></path><path id="path4" d="" stroke="none" fill="#2c5c94" fill-rule="evenodd"></path></g></svg>